<?xml version="1.0" encoding="iso-8859-1"?>
<!-- Generator: Adobe Illustrator 18.0.0, SVG Export Plug-In . SVG Version: 6.00 Build 0)  -->
<!DOCTYPE svg PUBLIC "-//W3C//DTD SVG 1.1//EN" "http://www.w3.org/Graphics/SVG/1.1/DTD/svg11.dtd">
<svg version="1.1" id="Capa_1" xmlns="http://www.w3.org/2000/svg" xmlns:xlink="http://www.w3.org/1999/xlink" x="0px" y="0px"
	 viewBox="0 0 58.21 58.21" style="enable-background:new 0 0 58.21 58.21;" xml:space="preserve">
<g>
	<path d="M41.103,24.21c0-6.617-5.383-12-12-12s-12,5.383-12,12v22c0,6.617,5.383,12,12,12s12-5.383,12-12V24.21z"/>
	<path d="M31.926,11.012l0.713,0l0.232-0.674c0.3-0.874,0.738-1.642,1.299-2.285c1.019-1.165,2.513-1.998,4.44-2.478l0.74-0.184
		l0.018-0.762c0.027-1.12,0.042-2.316-0.026-3.477L39.274,0l-1.13,0.23c-3.398,0.692-6.084,2.144-7.983,4.313
		c-1.299,1.485-2.204,3.267-2.69,5.296l-0.308,1.288l1.323-0.056C29.676,11.021,30.893,11.013,31.926,11.012z"/>
	<path d="M42.103,12.21c-1.562,0-3.085,0.307-4.51,0.894c3.342,2.561,5.51,6.58,5.51,11.106v22c0,4.526-2.168,8.545-5.51,11.106
		c1.424,0.587,2.947,0.894,4.51,0.894c6.075,0,10-4.71,9.996-11.91l2.004-22.09C54.103,17.593,48.72,12.21,42.103,12.21z"/>
	<path d="M15.103,46.21v-22c0-4.526,2.168-8.545,5.51-11.106c-1.424-0.587-2.947-0.894-4.51-0.894c-6.617,0-12,5.383-11.996,12.09
		l1.996,21.91c0,7.29,3.925,12,10,12c1.562,0,3.085-0.307,4.51-0.894C17.271,54.755,15.103,50.736,15.103,46.21z"/>
</g>
<g>
</g>
<g>
</g>
<g>
</g>
<g>
</g>
<g>
</g>
<g>
</g>
<g>
</g>
<g>
</g>
<g>
</g>
<g>
</g>
<g>
</g>
<g>
</g>
<g>
</g>
<g>
</g>
<g>
</g>
</svg>
