<?xml version="1.0" standalone="no"?>
<!DOCTYPE svg PUBLIC "-//W3C//DTD SVG 20010904//EN"
 "http://www.w3.org/TR/2001/REC-SVG-20010904/DTD/svg10.dtd">
<svg version="1.0" xmlns="http://www.w3.org/2000/svg"
 width="138.000000pt" height="118.000000pt" viewBox="0 0 138.000000 118.000000"
 preserveAspectRatio="xMidYMid meet">

<g transform="translate(0.000000,118.000000) scale(0.100000,-0.100000)"
fill="#000000" stroke="none">
<path d="M675 1120 c-75 -16 -155 -51 -236 -105 -57 -38 -96 -56 -128 -61 -57
-8 -128 -38 -160 -67 -29 -27 -60 -93 -61 -129 0 -15 -11 -48 -25 -74 -28 -53
-32 -108 -11 -157 19 -46 91 -108 158 -137 l58 -25 0 -152 0 -152 56 34 c72
43 158 72 259 86 167 23 455 -26 539 -92 l25 -20 7 37 c4 20 4 86 0 147 l-7
112 76 34 c82 37 135 86 135 127 0 29 -22 75 -44 93 -11 9 -16 30 -16 65 0
125 -114 249 -263 287 -29 7 -49 18 -52 29 -28 88 -182 148 -310 120z m199
-59 c64 -40 93 -132 66 -208 -10 -26 -9 -27 5 -8 9 11 20 36 26 57 11 44 26
47 91 21 132 -51 225 -172 196 -254 -6 -18 -24 -37 -47 -49 l-36 -19 46 6 c40
5 49 2 68 -18 53 -57 34 -102 -63 -148 -35 -17 -68 -31 -73 -31 -5 0 -16 14
-24 32 -8 18 -28 39 -46 47 -38 19 -40 29 -12 65 28 35 12 33 -26 -4 -30 -29
-30 -29 -80 -15 -28 7 -63 16 -79 20 -26 6 -28 8 -21 43 4 20 15 57 26 82 l20
44 -25 -23 c-14 -13 -35 -48 -47 -77 l-23 -54 -107 0 c-129 0 -130 0 -138 125
l-5 80 -7 -55 c-4 -30 -7 -78 -8 -106 -1 -52 -1 -52 -38 -58 -21 -4 -50 -9
-66 -12 -25 -5 -29 -1 -62 67 -39 83 -41 82 -20 -16 11 -49 12 -71 4 -74 -24
-8 -80 -65 -85 -87 -5 -20 -11 -23 -28 -18 -47 14 -120 60 -143 91 -29 38 -40
105 -24 145 10 26 11 27 38 13 44 -23 59 -18 29 10 -20 19 -26 33 -26 67 0 78
64 148 153 168 61 13 91 5 122 -32 l25 -30 0 37 c0 117 146 208 326 202 63 -3
89 -8 118 -26z m-13 -546 c107 -16 198 -46 223 -74 18 -19 36 -142 36 -243 l0
-57 -45 19 c-103 44 -338 73 -475 59 -90 -9 -196 -36 -248 -63 -17 -9 -33 -16
-35 -16 -8 0 6 274 14 298 11 30 98 70 175 81 94 14 251 12 355 -4z"/>
</g>
</svg>
